<svg width="908" height="172" viewBox="0 0 908 172" fill="none" xmlns="http://www.w3.org/2000/svg">
<path d="M24.5542 10.0835L30.9597 10.6173L28.2907 141.662C28.1128 151.092 29.7142 157.765 33.0948 161.679C36.4755 165.594 42.4361 167.551 50.9767 167.551C51.3326 167.551 51.5105 168.085 51.5105 169.152C51.5105 170.22 51.3326 170.753 50.9767 170.753C45.9947 170.753 42.1692 170.665 39.5003 170.487L25.088 170.22L11.2095 170.487C8.71853 170.665 5.15995 170.753 0.533787 170.753C0.177929 170.753 0 170.22 0 169.152C0 168.085 0.177929 167.551 0.533787 167.551C8.00681 167.551 13.3447 165.594 16.5474 161.679C19.9281 157.587 21.7074 150.914 21.8853 141.662L24.5542 10.0835ZM206.843 167.551C207.376 167.551 207.643 168.085 207.643 169.152C207.643 170.22 207.535 170.675 207.001 170.675C201.486 170.675 196.968 170.665 193.765 170.487L175.349 170.22L158.268 170.487C155.421 170.665 151.418 170.753 146.258 170.753C145.902 170.753 145.724 170.22 145.724 169.152C145.724 168.085 145.902 167.551 146.258 167.551C152.307 167.551 156.756 167.106 159.602 166.216C162.627 165.149 164.584 163.369 165.474 160.878C166.542 158.387 166.898 154.473 166.542 149.135L161.471 20.2254L170.278 7.94832L100.886 168.885C100.53 169.597 99.8182 169.953 98.7507 169.953C97.861 169.953 97.0603 169.597 96.3486 168.885L29.3583 26.0971C26.3335 19.5137 22.597 14.7096 18.1488 11.6848C13.8785 8.66003 8.62956 7.14763 2.40204 7.14763C2.04619 7.14763 1.86826 6.61385 1.86826 5.54628C1.86826 4.4787 2.04619 3.94492 2.40204 3.94492L12.2771 4.21181C14.0564 4.38974 16.5474 4.4787 19.7501 4.4787C22.9529 4.4787 25.6218 4.38974 27.7569 4.21181C30.07 4.03388 31.8493 3.94492 33.0948 3.94492C35.4079 3.94492 37.2762 4.83456 38.6996 6.61385C40.3009 8.21522 42.5251 11.9517 45.3719 17.8234L106.224 145.932L97.95 159.811L163.072 10.6173C165.029 6.16903 167.698 3.94492 171.079 3.94492C171.969 3.94492 173.214 4.03388 174.815 4.21181C176.595 4.38974 178.908 4.4787 181.755 4.4787L194.299 4.21181C196.256 4.03388 199.192 3.94492 203.106 3.94492C203.462 3.94492 203.64 4.4787 203.64 5.54628C203.64 6.61385 203.462 7.14763 203.106 7.14763C194.032 7.14763 187.537 8.4821 183.623 11.151C179.886 13.642 178.196 18.4461 178.552 25.5633L183.89 149.135C184.068 154.651 184.69 158.654 185.758 161.145C187.004 163.636 189.139 165.327 192.163 166.216C195.188 167.106 200.081 167.551 206.843 167.551Z" fill="#312119"/>
<path d="M222.045 92.0198H292.772L294.64 97.3577H219.376L222.045 92.0198ZM354.158 167.551C354.869 167.551 355.225 168.085 355.225 169.152C355.225 170.22 354.869 170.753 354.158 170.753C350.777 170.753 345.528 170.576 338.411 170.22C331.294 169.864 326.134 169.686 322.931 169.686C319.017 169.686 314.034 169.864 307.985 170.22C302.291 170.576 297.932 170.753 294.907 170.753C294.195 170.753 293.84 170.22 293.84 169.152C293.84 168.085 294.195 167.551 294.907 167.551C301.668 167.551 306.473 166.928 309.319 165.682C312.344 164.437 313.857 162.213 313.857 159.01C313.857 156.341 312.789 152.605 310.654 147.801L251.403 22.6275L258.076 14.3538L206.298 136.858C203.807 142.908 202.562 147.89 202.562 151.804C202.562 162.302 211.28 167.551 228.717 167.551C229.607 167.551 230.052 168.085 230.052 169.152C230.052 170.22 229.607 170.753 228.717 170.753C225.515 170.753 220.889 170.576 214.839 170.22C209.875 170.503 210.125 170.749 204.875 170.749C200.249 170.749 189.939 168.147 183.89 168.503C178.552 168.859 180.434 168.503 176.875 168.503C175.985 168.503 166.531 170.22 166.531 169.152C166.531 168.085 166.976 167.551 167.866 167.551C172.848 167.551 177.029 166.661 180.41 164.882C183.968 162.925 187.26 159.633 190.285 155.007C193.488 150.203 196.957 143.352 200.694 134.456L257.008 1.54287C257.364 1.00908 257.987 0.742188 258.876 0.742188C259.766 0.742188 260.3 1.00908 260.478 1.54287L323.465 134.189C329.514 147.356 334.674 156.252 338.945 160.878C343.215 165.327 348.286 167.551 354.158 167.551Z" fill="#312119"/>
<path d="M422.286 171.495C417.126 171.495 411.166 171.228 404.405 170.694C401.914 170.516 398.711 170.338 394.796 170.16C391.06 169.982 386.878 169.893 382.252 169.893L364.104 170.16C360.901 170.338 356.453 170.427 350.759 170.427C350.403 170.427 350.225 169.893 350.225 168.826C350.225 167.758 350.403 167.224 350.759 167.224C357.52 167.224 362.413 166.779 365.438 165.89C368.641 165 370.776 163.31 371.843 160.819C373.089 158.15 373.712 154.146 373.712 148.809V25.2368C373.712 19.8989 373.178 15.9845 372.11 13.4935C371.043 11.0025 368.908 9.31214 365.705 8.42249C362.68 7.35492 357.787 6.82114 351.026 6.82114C350.67 6.82114 350.492 6.28735 350.492 5.21978C350.492 4.15221 350.67 3.61842 351.026 3.61842L364.37 3.88531C371.843 4.24117 377.804 4.41909 382.252 4.41909C389.014 4.41909 395.686 4.1522 402.269 3.61842C410.098 3.26256 415.525 3.08463 418.55 3.08463C437.055 3.08463 453.424 6.64321 467.658 13.7604C481.893 20.8775 492.924 30.5747 500.753 42.8518C508.76 55.1289 512.763 68.9184 512.763 84.2203C512.763 101.479 508.671 116.781 500.486 130.126C492.479 143.293 481.537 153.524 467.658 160.819C453.78 167.936 438.656 171.495 422.286 171.495ZM419.617 167.491C433.852 167.491 446.485 164.555 457.516 158.684C468.548 152.634 477.089 143.827 483.138 132.261C489.366 120.518 492.479 106.461 492.479 90.092C492.479 74.6121 489.544 60.5557 483.672 47.9228C477.8 35.2898 469.438 25.3258 458.584 18.0307C447.73 10.7356 435.186 7.08803 420.952 7.08803C413.301 7.08803 407.34 7.53285 403.07 8.42249C398.978 9.31214 395.953 11.0914 393.996 13.7604C392.038 16.4293 391.06 20.4327 391.06 25.7706V145.873C391.06 151.211 391.772 155.392 393.195 158.417C394.796 161.442 397.643 163.755 401.736 165.356C406.006 166.779 411.966 167.491 419.617 167.491Z" fill="#312119"/>
<path d="M492.054 170.427C491.698 170.427 491.52 169.893 491.52 168.826C491.52 167.758 491.698 167.224 492.054 167.224C498.815 167.224 503.708 166.779 506.733 165.89C509.936 165 512.071 163.31 513.139 160.819C514.384 158.15 515.007 154.146 515.007 148.809V25.2368C515.007 19.8989 514.384 15.9845 513.139 13.4935C512.071 11.0025 509.936 9.31214 506.733 8.42249C503.708 7.35492 498.815 6.82114 492.054 6.82114C491.698 6.82114 491.52 6.28735 491.52 5.21978C491.52 4.15221 491.698 3.61842 492.054 3.61842H599.345C600.947 3.61842 601.747 4.4191 601.747 6.02045L602.281 38.8484C602.281 39.3822 601.747 39.738 600.68 39.916C599.79 39.916 599.345 39.6491 599.345 39.1153C598.812 29.685 595.965 22.3899 590.805 17.23C585.645 11.8921 578.795 9.22318 570.254 9.22318H553.973C547.746 9.22318 543.12 9.75697 540.095 10.8245C537.07 11.7142 534.935 13.3155 533.689 15.6286C532.622 17.9417 532.088 21.5893 532.088 26.5713V147.741C532.088 152.545 532.622 156.193 533.689 158.684C534.935 160.997 536.981 162.598 539.828 163.488C542.675 164.377 547.123 164.822 553.173 164.822H574.524C583.065 164.822 590.182 161.797 595.876 155.748C601.569 149.698 605.395 141.336 607.352 130.66C607.352 130.304 607.708 130.126 608.42 130.126C608.953 130.126 609.398 130.304 609.754 130.66C610.288 130.838 610.555 131.016 610.555 131.194C608.954 142.403 608.153 154.146 608.153 166.424C608.153 167.847 607.797 168.915 607.085 169.626C606.551 170.16 605.484 170.427 603.883 170.427H492.054ZM588.936 108.241C588.936 100.412 586.979 94.8071 583.065 91.4264C579.328 88.0458 573.012 86.3554 564.115 86.3554H524.081V80.7507H564.916C573.457 80.7507 579.506 79.3272 583.065 76.4804C586.801 73.6335 588.67 68.8294 588.67 62.0681C588.67 61.7123 589.203 61.5343 590.271 61.5343C591.339 61.5343 591.872 61.7123 591.872 62.0681L591.605 83.6865C591.605 88.8465 591.694 92.7609 591.872 95.4298L592.139 108.241C592.139 108.597 591.605 108.775 590.538 108.775C589.47 108.775 588.936 108.597 588.936 108.241Z" fill="#312119"/>
<path d="M726.416 170.427C721.968 170.427 713.427 162.865 700.794 147.741C688.339 132.439 673.304 111.443 655.689 84.7541L670.635 80.2169C686.115 102.458 699.015 119.806 709.335 132.261C719.833 144.538 729.085 153.435 737.092 158.951C745.098 164.466 752.927 167.224 760.578 167.224C761.112 167.224 761.379 167.758 761.379 168.826C761.379 169.893 761.112 170.427 760.578 170.427H726.416ZM659.159 2.81774C673.215 2.81774 684.069 6.02046 691.72 12.4259C699.371 18.8314 703.196 27.372 703.196 38.0477C703.196 47.4779 700.438 56.1075 694.922 63.9364C689.407 71.5873 681.934 77.7259 672.503 82.352C663.251 86.8003 653.287 89.0244 642.611 89.0244C641.544 89.0244 637.54 88.7575 630.601 88.2237V148.809C630.601 154.324 631.135 158.328 632.202 160.819C633.27 163.31 635.316 165 638.341 165.89C641.544 166.779 646.526 167.224 653.287 167.224C653.821 167.224 654.088 167.758 654.088 168.826C654.088 169.893 653.821 170.427 653.287 170.427C647.771 170.427 643.412 170.338 640.209 170.16L621.794 169.893L603.645 170.16C600.442 170.338 595.905 170.427 590.033 170.427C589.677 170.427 589.499 169.893 589.499 168.826C589.499 167.758 589.677 167.224 590.033 167.224C596.795 167.224 601.777 166.779 604.979 165.89C608.182 164.822 610.406 163.043 611.652 160.552C612.897 158.061 613.52 154.146 613.52 148.809V25.2368C613.52 19.8989 612.897 15.9845 611.652 13.4935C610.584 11.0025 608.449 9.31214 605.246 8.42249C602.221 7.35492 597.328 6.82114 590.567 6.82114C590.033 6.82114 589.766 6.28735 589.766 5.21978C589.766 4.15221 590.033 3.61842 590.567 3.61842L603.645 3.88531C611.118 4.24117 617.167 4.41909 621.794 4.41909C625.708 4.41909 629.356 4.33013 632.736 4.1522C636.117 3.97428 638.964 3.79635 641.277 3.61842C648.038 3.08463 653.999 2.81774 659.159 2.81774ZM685.047 45.7876C685.047 31.9092 681.934 21.9451 675.706 15.8955C669.657 9.84593 660.76 6.82114 649.017 6.82114C642.077 6.82114 637.273 8.06664 634.604 10.5576C631.936 13.0487 630.601 18.1196 630.601 25.7706V81.8183C634.871 82.53 640.12 82.8858 646.348 82.8858C660.226 82.8858 670.101 79.861 675.973 73.8114C682.023 67.7618 685.047 58.4206 685.047 45.7876Z" fill="#312119"/>
<path d="M766.434 91.2776H837.161L839.029 96.6155H763.765L766.434 91.2776ZM898.546 166.809C899.258 166.809 899.614 167.342 899.614 168.41C899.614 169.477 899.258 170.011 898.546 170.011C895.166 170.011 889.917 169.833 882.8 169.477C875.682 169.122 870.523 168.944 867.32 168.944C863.405 168.944 858.423 169.122 852.374 169.477C846.68 169.833 842.321 170.011 839.296 170.011C838.584 170.011 838.228 169.477 838.228 168.41C838.228 167.342 838.584 166.809 839.296 166.809C846.057 166.809 850.861 166.186 853.708 164.94C856.733 163.695 858.245 161.471 858.245 158.268C858.245 155.599 857.178 151.863 855.043 147.058L795.792 21.8853L802.465 13.6116L750.687 136.116C748.196 142.165 746.951 147.147 746.951 151.062C746.951 161.56 755.669 166.809 773.106 166.809C773.996 166.809 774.441 167.342 774.441 168.41C774.441 169.477 773.996 170.011 773.106 170.011C769.904 170.011 766.628 170.783 760.578 170.427C753.817 170.071 746.595 168.944 741.613 168.944C736.987 168.944 733.916 169.831 726.416 169.831C721.078 170.187 728.357 167.581 724.799 167.581C723.909 167.581 726.416 167.876 726.416 166.809C726.416 165.741 721.61 165.831 722.5 165.831C727.482 165.831 721.418 165.919 724.799 164.14C728.357 162.182 731.649 158.891 734.674 154.265C737.876 149.46 741.346 142.61 745.083 133.714L801.397 0.800687C801.753 0.266896 802.376 0 803.265 0C804.155 0 804.689 0.266896 804.867 0.800687L867.854 133.447C873.903 146.614 879.063 155.51 883.333 160.136C887.604 164.584 892.675 166.809 898.546 166.809Z" fill="#312119"/>
<g clip-path="url(#clip0_3190_1017)">
<path d="M24.5542 10.0835L30.9597 10.6173L28.2907 141.662C28.1128 151.092 29.7142 157.765 33.0948 161.679C36.4755 165.594 42.4361 167.551 50.9767 167.551C51.3326 167.551 51.5105 168.085 51.5105 169.152C51.5105 170.22 51.3326 170.753 50.9767 170.753C45.9947 170.753 42.1692 170.665 39.5003 170.487L25.088 170.22L11.2095 170.487C8.71853 170.665 5.15995 170.753 0.533787 170.753C0.177929 170.753 0 170.22 0 169.152C0 168.085 0.177929 167.551 0.533787 167.551C8.00681 167.551 13.3447 165.594 16.5474 161.679C19.9281 157.587 21.7074 150.914 21.8853 141.662L24.5542 10.0835ZM206.843 167.551C207.376 167.551 207.643 168.085 207.643 169.152C207.643 170.22 207.535 170.675 207.001 170.675C201.486 170.675 196.968 170.665 193.765 170.487L175.349 170.22L158.268 170.487C155.421 170.665 151.418 170.753 146.258 170.753C145.902 170.753 145.724 170.22 145.724 169.152C145.724 168.085 145.902 167.551 146.258 167.551C152.307 167.551 156.756 167.106 159.602 166.216C162.627 165.149 164.584 163.369 165.474 160.878C166.542 158.387 166.898 154.473 166.542 149.135L161.471 20.2254L170.278 7.94832L100.886 168.885C100.53 169.597 99.8182 169.953 98.7507 169.953C97.861 169.953 97.0603 169.597 96.3486 168.885L29.3583 26.0971C26.3335 19.5137 22.597 14.7096 18.1488 11.6848C13.8785 8.66003 8.62956 7.14763 2.40204 7.14763C2.04619 7.14763 1.86826 6.61385 1.86826 5.54628C1.86826 4.4787 2.04619 3.94492 2.40204 3.94492L12.2771 4.21181C14.0564 4.38974 16.5474 4.4787 19.7501 4.4787C22.9529 4.4787 25.6218 4.38974 27.7569 4.21181C30.07 4.03388 31.8493 3.94492 33.0948 3.94492C35.4079 3.94492 37.2762 4.83456 38.6996 6.61385C40.3009 8.21522 42.5251 11.9517 45.3719 17.8234L106.224 145.932L97.95 159.811L163.072 10.6173C165.029 6.16903 167.698 3.94492 171.079 3.94492C171.969 3.94492 173.214 4.03388 174.815 4.21181C176.595 4.38974 178.908 4.4787 181.755 4.4787L194.299 4.21181C196.256 4.03388 199.192 3.94492 203.106 3.94492C203.462 3.94492 203.64 4.4787 203.64 5.54628C203.64 6.61385 203.462 7.14763 203.106 7.14763C194.032 7.14763 187.537 8.4821 183.623 11.151C179.886 13.642 178.196 18.4461 178.552 25.5633L183.89 149.135C184.068 154.651 184.69 158.654 185.758 161.145C187.004 163.636 189.139 165.327 192.163 166.216C195.188 167.106 200.081 167.551 206.843 167.551Z" fill="white"/>
<path d="M222.045 92.0198H292.772L294.64 97.3577H219.376L222.045 92.0198ZM354.158 167.551C354.869 167.551 355.225 168.085 355.225 169.152C355.225 170.22 354.869 170.753 354.158 170.753C350.777 170.753 345.528 170.576 338.411 170.22C331.294 169.864 326.134 169.686 322.931 169.686C319.017 169.686 314.034 169.864 307.985 170.22C302.291 170.576 297.932 170.753 294.907 170.753C294.195 170.753 293.84 170.22 293.84 169.152C293.84 168.085 294.195 167.551 294.907 167.551C301.668 167.551 306.473 166.928 309.319 165.682C312.344 164.437 313.857 162.213 313.857 159.01C313.857 156.341 312.789 152.605 310.654 147.801L251.403 22.6275L258.076 14.3538L206.298 136.858C203.807 142.908 202.562 147.89 202.562 151.804C202.562 162.302 211.28 167.551 228.717 167.551C229.607 167.551 230.052 168.085 230.052 169.152C230.052 170.22 229.607 170.753 228.717 170.753C225.515 170.753 220.889 170.576 214.839 170.22C209.875 170.503 210.125 170.749 204.875 170.749C200.249 170.749 189.939 168.147 183.89 168.503C178.552 168.859 180.434 168.503 176.875 168.503C175.985 168.503 166.531 170.22 166.531 169.152C166.531 168.085 166.976 167.551 167.866 167.551C172.848 167.551 177.029 166.661 180.41 164.882C183.968 162.925 187.26 159.633 190.285 155.007C193.488 150.203 196.957 143.352 200.694 134.456L257.008 1.54287C257.364 1.00908 257.987 0.742188 258.876 0.742188C259.766 0.742188 260.3 1.00908 260.478 1.54287L323.465 134.189C329.514 147.356 334.674 156.252 338.945 160.878C343.215 165.327 348.286 167.551 354.158 167.551Z" fill="white"/>
<path d="M422.286 171.495C417.126 171.495 411.166 171.228 404.405 170.694C401.914 170.516 398.711 170.338 394.796 170.16C391.06 169.982 386.878 169.893 382.252 169.893L364.104 170.16C360.901 170.338 356.453 170.427 350.759 170.427C350.403 170.427 350.225 169.893 350.225 168.826C350.225 167.758 350.403 167.224 350.759 167.224C357.52 167.224 362.413 166.779 365.438 165.89C368.641 165 370.776 163.31 371.843 160.819C373.089 158.15 373.712 154.146 373.712 148.809V25.2368C373.712 19.8989 373.178 15.9845 372.11 13.4935C371.043 11.0025 368.908 9.31214 365.705 8.42249C362.68 7.35492 357.787 6.82114 351.026 6.82114C350.67 6.82114 350.492 6.28735 350.492 5.21978C350.492 4.15221 350.67 3.61842 351.026 3.61842L364.37 3.88531C371.843 4.24117 377.804 4.41909 382.252 4.41909C389.014 4.41909 395.686 4.1522 402.269 3.61842C410.098 3.26256 415.525 3.08463 418.55 3.08463C437.055 3.08463 453.424 6.64321 467.658 13.7604C481.893 20.8775 492.924 30.5747 500.753 42.8518C508.76 55.1289 512.763 68.9184 512.763 84.2203C512.763 101.479 508.671 116.781 500.486 130.126C492.479 143.293 481.537 153.524 467.658 160.819C453.78 167.936 438.656 171.495 422.286 171.495ZM419.617 167.491C433.852 167.491 446.485 164.555 457.516 158.684C468.548 152.634 477.089 143.827 483.138 132.261C489.366 120.518 492.479 106.461 492.479 90.092C492.479 74.6121 489.544 60.5557 483.672 47.9228C477.8 35.2898 469.438 25.3258 458.584 18.0307C447.73 10.7356 435.186 7.08803 420.952 7.08803C413.301 7.08803 407.34 7.53285 403.07 8.42249C398.978 9.31214 395.953 11.0914 393.996 13.7604C392.038 16.4293 391.06 20.4327 391.06 25.7706V145.873C391.06 151.211 391.772 155.392 393.195 158.417C394.796 161.442 397.643 163.755 401.736 165.356C406.006 166.779 411.966 167.491 419.617 167.491Z" fill="white"/>
<path d="M492.054 170.427C491.698 170.427 491.52 169.893 491.52 168.826C491.52 167.758 491.698 167.224 492.054 167.224C498.815 167.224 503.708 166.779 506.733 165.89C509.936 165 512.071 163.31 513.139 160.819C514.384 158.15 515.007 154.146 515.007 148.809V25.2368C515.007 19.8989 514.384 15.9845 513.139 13.4935C512.071 11.0025 509.936 9.31214 506.733 8.42249C503.708 7.35492 498.815 6.82114 492.054 6.82114C491.698 6.82114 491.52 6.28735 491.52 5.21978C491.52 4.15221 491.698 3.61842 492.054 3.61842H599.345C600.947 3.61842 601.747 4.4191 601.747 6.02045L602.281 38.8484C602.281 39.3822 601.747 39.738 600.68 39.916C599.79 39.916 599.345 39.6491 599.345 39.1153C598.812 29.685 595.965 22.3899 590.805 17.23C585.645 11.8921 578.795 9.22318 570.254 9.22318H553.973C547.746 9.22318 543.12 9.75697 540.095 10.8245C537.07 11.7142 534.935 13.3155 533.689 15.6286C532.622 17.9417 532.088 21.5893 532.088 26.5713V147.741C532.088 152.545 532.622 156.193 533.689 158.684C534.935 160.997 536.981 162.598 539.828 163.488C542.675 164.377 547.123 164.822 553.173 164.822H574.524C583.065 164.822 590.182 161.797 595.876 155.748C601.569 149.698 605.395 141.336 607.352 130.66C607.352 130.304 607.708 130.126 608.42 130.126C608.953 130.126 609.398 130.304 609.754 130.66C610.288 130.838 610.555 131.016 610.555 131.194C608.954 142.403 608.153 154.146 608.153 166.424C608.153 167.847 607.797 168.915 607.085 169.626C606.551 170.16 605.484 170.427 603.883 170.427H492.054ZM588.936 108.241C588.936 100.412 586.979 94.8071 583.065 91.4264C579.328 88.0458 573.012 86.3554 564.115 86.3554H524.081V80.7507H564.916C573.457 80.7507 579.506 79.3272 583.065 76.4804C586.801 73.6335 588.67 68.8294 588.67 62.0681C588.67 61.7123 589.203 61.5343 590.271 61.5343C591.339 61.5343 591.872 61.7123 591.872 62.0681L591.605 83.6865C591.605 88.8465 591.694 92.7609 591.872 95.4298L592.139 108.241C592.139 108.597 591.605 108.775 590.538 108.775C589.47 108.775 588.936 108.597 588.936 108.241Z" fill="white"/>
<path d="M726.416 170.427C721.968 170.427 713.427 162.865 700.794 147.741C688.339 132.439 673.304 111.443 655.689 84.7541L670.635 80.2169C686.115 102.458 699.015 119.806 709.335 132.261C719.833 144.538 729.085 153.435 737.092 158.951C745.098 164.466 752.927 167.224 760.578 167.224C761.112 167.224 761.379 167.758 761.379 168.826C761.379 169.893 761.112 170.427 760.578 170.427H726.416ZM659.159 2.81774C673.215 2.81774 684.069 6.02046 691.72 12.4259C699.371 18.8314 703.196 27.372 703.196 38.0477C703.196 47.4779 700.438 56.1075 694.922 63.9364C689.407 71.5873 681.934 77.7259 672.503 82.352C663.251 86.8003 653.287 89.0244 642.611 89.0244C641.544 89.0244 637.54 88.7575 630.601 88.2237V148.809C630.601 154.324 631.135 158.328 632.202 160.819C633.27 163.31 635.316 165 638.341 165.89C641.544 166.779 646.526 167.224 653.287 167.224C653.821 167.224 654.088 167.758 654.088 168.826C654.088 169.893 653.821 170.427 653.287 170.427C647.771 170.427 643.412 170.338 640.209 170.16L621.794 169.893L603.645 170.16C600.442 170.338 595.905 170.427 590.033 170.427C589.677 170.427 589.499 169.893 589.499 168.826C589.499 167.758 589.677 167.224 590.033 167.224C596.795 167.224 601.777 166.779 604.979 165.89C608.182 164.822 610.406 163.043 611.652 160.552C612.897 158.061 613.52 154.146 613.52 148.809V25.2368C613.52 19.8989 612.897 15.9845 611.652 13.4935C610.584 11.0025 608.449 9.31214 605.246 8.42249C602.221 7.35492 597.328 6.82114 590.567 6.82114C590.033 6.82114 589.766 6.28735 589.766 5.21978C589.766 4.15221 590.033 3.61842 590.567 3.61842L603.645 3.88531C611.118 4.24117 617.167 4.41909 621.794 4.41909C625.708 4.41909 629.356 4.33013 632.736 4.1522C636.117 3.97428 638.964 3.79635 641.277 3.61842C648.038 3.08463 653.999 2.81774 659.159 2.81774ZM685.047 45.7876C685.047 31.9092 681.934 21.9451 675.706 15.8955C669.657 9.84593 660.76 6.82114 649.017 6.82114C642.077 6.82114 637.273 8.06664 634.604 10.5576C631.936 13.0487 630.601 18.1196 630.601 25.7706V81.8183C634.871 82.53 640.12 82.8858 646.348 82.8858C660.226 82.8858 670.101 79.861 675.973 73.8114C682.023 67.7618 685.047 58.4206 685.047 45.7876Z" fill="white"/>
<path d="M766.434 91.2776H837.161L839.029 96.6155H763.765L766.434 91.2776ZM898.546 166.809C899.258 166.809 899.614 167.342 899.614 168.41C899.614 169.477 899.258 170.011 898.546 170.011C895.166 170.011 889.917 169.833 882.8 169.477C875.682 169.122 870.523 168.944 867.32 168.944C863.405 168.944 858.423 169.122 852.374 169.477C846.68 169.833 842.321 170.011 839.296 170.011C838.584 170.011 838.228 169.477 838.228 168.41C838.228 167.342 838.584 166.809 839.296 166.809C846.057 166.809 850.861 166.186 853.708 164.94C856.733 163.695 858.245 161.471 858.245 158.268C858.245 155.599 857.178 151.863 855.043 147.058L795.792 21.8853L802.465 13.6116L750.687 136.116C748.196 142.165 746.951 147.147 746.951 151.062C746.951 161.56 755.669 166.809 773.106 166.809C773.996 166.809 774.441 167.342 774.441 168.41C774.441 169.477 773.996 170.011 773.106 170.011C769.904 170.011 766.628 170.783 760.578 170.427C753.817 170.071 746.595 168.944 741.613 168.944C736.987 168.944 733.916 169.831 726.416 169.831C721.078 170.187 728.357 167.581 724.799 167.581C723.909 167.581 726.416 167.876 726.416 166.809C726.416 165.741 721.61 165.831 722.5 165.831C727.482 165.831 721.418 165.919 724.799 164.14C728.357 162.182 731.649 158.891 734.674 154.265C737.876 149.46 741.346 142.61 745.083 133.714L801.397 0.800687C801.753 0.266896 802.376 0 803.265 0C804.155 0 804.689 0.266896 804.867 0.800687L867.854 133.447C873.903 146.614 879.063 155.51 883.333 160.136C887.604 164.584 892.675 166.809 898.546 166.809Z" fill="white"/>
</g>
<defs>
<clipPath id="clip0_3190_1017">
<rect width="908" height="127" fill="white"/>
</clipPath>
</defs>
</svg>
