<svg width="97" height="60" viewBox="0 0 97 60" fill="none" xmlns="http://www.w3.org/2000/svg">
<path d="M4.16025 14.5855L4.93425 14.65L4.61175 30.4847C4.59025 31.6242 4.78375 32.4305 5.19225 32.9035C5.60075 33.3765 6.321 33.613 7.353 33.613C7.396 33.613 7.4175 33.6775 7.4175 33.8065C7.4175 33.9355 7.396 34 7.353 34C6.751 34 6.28875 33.9892 5.96625 33.9677L4.22475 33.9355L2.54775 33.9677C2.24675 33.9892 1.81675 34 1.25775 34C1.21475 34 1.19325 33.9355 1.19325 33.8065C1.19325 33.6775 1.21475 33.613 1.25775 33.613C2.16075 33.613 2.80575 33.3765 3.19275 32.9035C3.60125 32.409 3.81625 31.6027 3.83775 30.4847L4.16025 14.5855ZM26.187 33.613C26.2515 33.613 26.2838 33.6775 26.2838 33.8065C26.2838 33.9355 26.2515 34 26.187 34C25.5205 34 24.9938 33.9892 24.6068 33.9677L22.3815 33.9355L20.3175 33.9677C19.9735 33.9892 19.4898 34 18.8663 34C18.8233 34 18.8018 33.9355 18.8018 33.8065C18.8018 33.6775 18.8233 33.613 18.8663 33.613C19.5973 33.613 20.1348 33.5592 20.4788 33.4517C20.8443 33.3227 21.0808 33.1077 21.1883 32.8067C21.3173 32.5057 21.3603 32.0327 21.3173 31.3877L20.7045 15.811L21.7688 14.3275L13.3838 33.7742C13.3408 33.8602 13.2548 33.9032 13.1258 33.9032C13.0183 33.9032 12.9215 33.8602 12.8355 33.7742L4.74075 16.5205C4.37525 15.725 3.92375 15.1445 3.38625 14.779C2.87025 14.4135 2.236 14.2307 1.4835 14.2307C1.4405 14.2307 1.419 14.1662 1.419 14.0372C1.419 13.9082 1.4405 13.8438 1.4835 13.8438L2.67675 13.876C2.89175 13.8975 3.19275 13.9082 3.57975 13.9082C3.96675 13.9082 4.28925 13.8975 4.54725 13.876C4.82675 13.8545 5.04175 13.8438 5.19225 13.8438C5.47175 13.8438 5.6975 13.9512 5.8695 14.1662C6.063 14.3597 6.33175 14.8112 6.67575 15.5207L14.0288 31.0007L13.029 32.6777L20.898 14.65C21.1345 14.1125 21.457 13.8438 21.8655 13.8438C21.973 13.8438 22.1235 13.8545 22.317 13.876C22.532 13.8975 22.8115 13.9082 23.1555 13.9082L24.6713 13.876C24.9078 13.8545 25.2625 13.8438 25.7355 13.8438C25.7785 13.8438 25.8 13.9082 25.8 14.0372C25.8 14.1662 25.7785 14.2307 25.7355 14.2307C24.639 14.2307 23.8543 14.392 23.3813 14.7145C22.9298 15.0155 22.7255 15.596 22.7685 16.456L23.4135 31.3877C23.435 32.0542 23.5103 32.538 23.6393 32.839C23.7898 33.14 24.0478 33.3442 24.4133 33.4517C24.7788 33.5592 25.37 33.613 26.187 33.613ZM28.024 24.4862H36.5702L36.796 25.1312H27.7015L28.024 24.4862ZM43.9877 33.613C44.0737 33.613 44.1167 33.6775 44.1167 33.8065C44.1167 33.9355 44.0737 34 43.9877 34C43.5792 34 42.945 33.9785 42.085 33.9355C41.225 33.8925 40.6015 33.871 40.2145 33.871C39.7415 33.871 39.1395 33.8925 38.4085 33.9355C37.7205 33.9785 37.1937 34 36.8282 34C36.7422 34 36.6992 33.9355 36.6992 33.8065C36.6992 33.6775 36.7422 33.613 36.8282 33.613C37.6452 33.613 38.2257 33.5377 38.5697 33.3872C38.9352 33.2367 39.118 32.968 39.118 32.581C39.118 32.2585 38.989 31.807 38.731 31.2265L31.5715 16.1012L32.3777 15.1015L26.1212 29.9042C25.8202 30.6352 25.6697 31.2372 25.6697 31.7102C25.6697 32.9787 26.7232 33.613 28.8302 33.613C28.9377 33.613 28.9915 33.6775 28.9915 33.8065C28.9915 33.9355 28.9377 34 28.8302 34C28.4432 34 27.8842 33.9785 27.1532 33.9355C26.3362 33.8925 25.6267 33.871 25.0247 33.871C24.4657 33.871 23.8207 33.8925 23.0897 33.9355C22.4447 33.9785 21.9072 34 21.4772 34C21.3697 34 21.316 33.9355 21.316 33.8065C21.316 33.6775 21.3697 33.613 21.4772 33.613C22.0792 33.613 22.5845 33.5055 22.993 33.2905C23.423 33.054 23.8207 32.6562 24.1862 32.0972C24.5732 31.5167 24.9925 30.689 25.444 29.614L32.2487 13.5535C32.2917 13.489 32.367 13.4567 32.4745 13.4567C32.582 13.4567 32.6465 13.489 32.668 13.5535L40.279 29.5817C41.01 31.1727 41.6335 32.2477 42.1495 32.8067C42.6655 33.3442 43.2782 33.613 43.9877 33.613Z" fill="#F4EDE4"/>
<path d="M38.7718 47.129C38.1483 47.129 37.428 47.0968 36.611 47.0323C36.31 47.0108 35.923 46.9892 35.45 46.9677C34.9985 46.9462 34.4933 46.9355 33.9343 46.9355L31.7413 46.9677C31.3543 46.9892 30.8168 47 30.1288 47C30.0857 47 30.0642 46.9355 30.0642 46.8065C30.0642 46.6775 30.0857 46.613 30.1288 46.613C30.9458 46.613 31.537 46.5592 31.9025 46.4517C32.2895 46.3442 32.5475 46.14 32.6765 45.839C32.827 45.5165 32.9023 45.0327 32.9023 44.3877V29.456C32.9023 28.811 32.8378 28.338 32.7088 28.037C32.5798 27.736 32.3218 27.5317 31.9348 27.4242C31.5693 27.2952 30.978 27.2307 30.161 27.2307C30.118 27.2307 30.0965 27.1662 30.0965 27.0372C30.0965 26.9082 30.118 26.8438 30.161 26.8438L31.7735 26.876C32.6765 26.919 33.3968 26.9405 33.9343 26.9405C34.7513 26.9405 35.5575 26.9082 36.353 26.8438C37.299 26.8007 37.9548 26.7792 38.3203 26.7792C40.5563 26.7792 42.5343 27.2092 44.2543 28.0692C45.9743 28.9292 47.3073 30.101 48.2533 31.5845C49.2208 33.068 49.7045 34.7342 49.7045 36.5832C49.7045 38.6687 49.21 40.5177 48.221 42.1302C47.2535 43.7212 45.9313 44.9575 44.2543 45.839C42.5773 46.699 40.7498 47.129 38.7718 47.129ZM38.4493 46.6452C40.1693 46.6452 41.6958 46.2905 43.0288 45.581C44.3618 44.85 45.3938 43.7857 46.1248 42.3882C46.8773 40.9692 47.2535 39.2707 47.2535 37.2927C47.2535 35.4222 46.8988 33.7237 46.1893 32.1972C45.4798 30.6707 44.4693 29.4667 43.1578 28.5852C41.8463 27.7037 40.3305 27.263 38.6105 27.263C37.686 27.263 36.9658 27.3167 36.4498 27.4242C35.9553 27.5317 35.5898 27.7467 35.3533 28.0692C35.1168 28.3917 34.9985 28.8755 34.9985 29.5205V44.033C34.9985 44.678 35.0845 45.1832 35.2565 45.5487C35.45 45.9142 35.794 46.1937 36.2885 46.3872C36.8045 46.5592 37.5248 46.6452 38.4493 46.6452ZM47.2021 47C47.1591 47 47.1376 46.9355 47.1376 46.8065C47.1376 46.6775 47.1591 46.613 47.2021 46.613C48.0191 46.613 48.6104 46.5592 48.9759 46.4517C49.3629 46.3442 49.6209 46.14 49.7499 45.839C49.9004 45.5165 49.9756 45.0327 49.9756 44.3877V29.456C49.9756 28.811 49.9004 28.338 49.7499 28.037C49.6209 27.736 49.3629 27.5317 48.9759 27.4242C48.6104 27.2952 48.0191 27.2307 47.2021 27.2307C47.1591 27.2307 47.1376 27.1662 47.1376 27.0372C47.1376 26.9082 47.1591 26.8438 47.2021 26.8438H60.1666C60.3601 26.8438 60.4569 26.9405 60.4569 27.134L60.5214 31.1007C60.5214 31.1652 60.4569 31.2082 60.3279 31.2297C60.2204 31.2297 60.1666 31.1975 60.1666 31.133C60.1021 29.9935 59.7581 29.112 59.1346 28.4885C58.5111 27.8435 57.6834 27.521 56.6514 27.521H54.6841C53.9316 27.521 53.3726 27.5855 53.0071 27.7145C52.6416 27.822 52.3836 28.0155 52.2331 28.295C52.1041 28.5745 52.0396 29.0152 52.0396 29.6172V44.2587C52.0396 44.8392 52.1041 45.28 52.2331 45.581C52.3836 45.8605 52.6309 46.054 52.9749 46.1615C53.3189 46.269 53.8564 46.3227 54.5874 46.3227H57.1674C58.1994 46.3227 59.0594 45.9572 59.7474 45.2262C60.4354 44.4952 60.8976 43.4847 61.1341 42.1947C61.1341 42.1517 61.1771 42.1302 61.2631 42.1302C61.3276 42.1302 61.3814 42.1517 61.4244 42.1947C61.4889 42.2162 61.5211 42.2377 61.5211 42.2593C61.3276 43.6137 61.2309 45.0327 61.2309 46.5162C61.2309 46.6882 61.1879 46.8172 61.1019 46.9032C61.0374 46.9677 60.9084 47 60.7149 47H47.2021ZM58.9089 39.4857C58.9089 38.5397 58.6724 37.8625 58.1994 37.454C57.7479 37.0455 56.9846 36.8412 55.9096 36.8412H51.0721V36.164H56.0064C57.0384 36.164 57.7694 35.992 58.1994 35.648C58.6509 35.304 58.8766 34.7235 58.8766 33.9065C58.8766 33.8635 58.9411 33.842 59.0701 33.842C59.1991 33.842 59.2636 33.8635 59.2636 33.9065L59.2314 36.5187C59.2314 37.1422 59.2421 37.6152 59.2636 37.9377L59.2959 39.4857C59.2959 39.5287 59.2314 39.5502 59.1024 39.5502C58.9734 39.5502 58.9089 39.5287 58.9089 39.4857ZM75.5211 47C74.9836 47 73.9516 46.0862 72.4251 44.2587C70.9201 42.4097 69.1034 39.8727 66.9749 36.6477L68.7809 36.0995C70.6514 38.787 72.2101 40.8832 73.4571 42.3882C74.7256 43.8717 75.8436 44.9467 76.8111 45.6132C77.7786 46.2797 78.7246 46.613 79.6491 46.613C79.7136 46.613 79.7459 46.6775 79.7459 46.8065C79.7459 46.9355 79.7136 47 79.6491 47H75.5211ZM67.3941 26.747C69.0926 26.747 70.4041 27.134 71.3286 27.908C72.2531 28.682 72.7154 29.714 72.7154 31.004C72.7154 32.1435 72.3821 33.1862 71.7156 34.1322C71.0491 35.0567 70.1461 35.7985 69.0066 36.3575C67.8886 36.895 66.6846 37.1637 65.3946 37.1637C65.2656 37.1637 64.7819 37.1315 63.9434 37.067V44.3877C63.9434 45.0542 64.0079 45.538 64.1369 45.839C64.2659 46.14 64.5131 46.3442 64.8786 46.4517C65.2656 46.5592 65.8676 46.613 66.6846 46.613C66.7491 46.613 66.7814 46.6775 66.7814 46.8065C66.7814 46.9355 66.7491 47 66.6846 47C66.0181 47 65.4914 46.9892 65.1044 46.9677L62.8791 46.9355L60.6861 46.9677C60.2991 46.9892 59.7509 47 59.0414 47C58.9984 47 58.9769 46.9355 58.9769 46.8065C58.9769 46.6775 58.9984 46.613 59.0414 46.613C59.8584 46.613 60.4604 46.5592 60.8474 46.4517C61.2344 46.3227 61.5031 46.1077 61.6536 45.8067C61.8041 45.5057 61.8794 45.0327 61.8794 44.3877V29.456C61.8794 28.811 61.8041 28.338 61.6536 28.037C61.5246 27.736 61.2666 27.5317 60.8796 27.4242C60.5141 27.2952 59.9229 27.2307 59.1059 27.2307C59.0414 27.2307 59.0091 27.1662 59.0091 27.0372C59.0091 26.9082 59.0414 26.8438 59.1059 26.8438L60.6861 26.876C61.5891 26.919 62.3201 26.9405 62.8791 26.9405C63.3521 26.9405 63.7929 26.9297 64.2014 26.9082C64.6099 26.8867 64.9539 26.8652 65.2334 26.8438C66.0504 26.7792 66.7706 26.747 67.3941 26.747ZM70.5224 31.9392C70.5224 30.2622 70.1461 29.0582 69.3936 28.3272C68.6626 27.5962 67.5876 27.2307 66.1686 27.2307C65.3301 27.2307 64.7496 27.3812 64.4271 27.6822C64.1046 27.9832 63.9434 28.596 63.9434 29.5205V36.293C64.4594 36.379 65.0936 36.422 65.8461 36.422C67.5231 36.422 68.7164 36.0565 69.4259 35.3255C70.1569 34.5945 70.5224 33.4657 70.5224 31.9392ZM80.4506 37.4862H88.9968L89.2226 38.1312H80.1281L80.4506 37.4862ZM96.4143 46.613C96.5003 46.613 96.5433 46.6775 96.5433 46.8065C96.5433 46.9355 96.5003 47 96.4143 47C96.0058 47 95.3716 46.9785 94.5116 46.9355C93.6516 46.8925 93.0281 46.871 92.6411 46.871C92.1681 46.871 91.5661 46.8925 90.8351 46.9355C90.1471 46.9785 89.6203 47 89.2548 47C89.1688 47 89.1258 46.9355 89.1258 46.8065C89.1258 46.6775 89.1688 46.613 89.2548 46.613C90.0718 46.613 90.6523 46.5377 90.9963 46.3872C91.3618 46.2367 91.5446 45.968 91.5446 45.581C91.5446 45.2585 91.4156 44.807 91.1576 44.2265L83.9981 29.1012L84.8043 28.1015L78.5478 42.9042C78.2468 43.6352 78.0963 44.2372 78.0963 44.7102C78.0963 45.9787 79.1498 46.613 81.2568 46.613C81.3643 46.613 81.4181 46.6775 81.4181 46.8065C81.4181 46.9355 81.3643 47 81.2568 47C80.8698 47 80.3108 46.9785 79.5798 46.9355C78.7628 46.8925 78.0533 46.871 77.4513 46.871C76.8923 46.871 76.2473 46.8925 75.5163 46.9355C74.8713 46.9785 74.3338 47 73.9038 47C73.7963 47 73.7426 46.9355 73.7426 46.8065C73.7426 46.6775 73.7963 46.613 73.9038 46.613C74.5058 46.613 75.0111 46.5055 75.4196 46.2905C75.8496 46.054 76.2473 45.6562 76.6128 45.0972C76.9998 44.5167 77.4191 43.689 77.8706 42.614L84.6753 26.5535C84.7183 26.489 84.7936 26.4567 84.9011 26.4567C85.0086 26.4567 85.0731 26.489 85.0946 26.5535L92.7056 42.5817C93.4366 44.1727 94.0601 45.2477 94.5761 45.8067C95.0921 46.3442 95.7048 46.613 96.4143 46.613Z" fill="#F4EDE4"/>
</svg>
