<svg width="1440" height="669" viewBox="0 0 1440 669" fill="none" xmlns="http://www.w3.org/2000/svg">
<g opacity="0.12" clip-path="url(#clip0_3190_948)">
<path d="M596.732 706.305C586.413 706.305 574.491 705.772 560.969 704.704C555.987 704.348 549.581 703.992 541.752 703.637C534.279 703.281 525.917 703.103 516.664 703.103L480.367 703.637C473.961 703.992 465.065 704.17 453.677 704.17C452.966 704.17 452.61 703.103 452.61 700.968C452.61 698.832 452.966 697.765 453.677 697.765C467.2 697.765 476.986 696.875 483.036 695.096C489.441 693.317 493.711 689.936 495.847 684.954C498.338 679.616 499.583 671.609 499.583 660.934V413.79C499.583 403.114 498.516 395.285 496.38 390.303C494.245 385.321 489.975 381.941 483.57 380.161C477.52 378.026 467.734 376.959 454.211 376.959C453.5 376.959 453.144 375.891 453.144 373.756C453.144 371.621 453.5 370.553 454.211 370.553L480.901 371.087C495.847 371.799 507.768 372.155 516.664 372.155C530.187 372.155 543.532 371.621 556.698 370.553C572.356 369.842 583.21 369.486 589.259 369.486C626.269 369.486 659.008 376.603 687.476 390.837C715.945 405.071 738.008 424.466 753.666 449.02C769.68 473.574 777.686 501.153 777.686 531.757C777.686 566.275 769.502 596.879 753.132 623.568C737.119 649.902 715.233 670.364 687.476 684.954C659.719 699.188 629.471 706.305 596.732 706.305ZM591.395 698.299C619.863 698.299 645.129 692.427 667.192 680.684C689.256 668.585 706.337 650.97 718.436 627.839C730.891 604.352 737.119 576.239 737.119 543.5C737.119 512.541 731.247 484.428 719.504 459.162C707.76 433.896 691.035 413.968 669.328 399.378C647.62 384.788 622.532 377.492 594.064 377.492C578.762 377.492 566.84 378.382 558.3 380.161C550.115 381.941 544.065 385.499 540.151 390.837C536.237 396.175 534.279 404.182 534.279 414.858V655.062C534.279 665.738 535.703 674.1 538.55 680.15C541.752 686.199 547.446 690.826 555.631 694.028C564.171 696.875 576.093 698.299 591.395 698.299Z" fill="#F4EDE4"/>
<path d="M736.268 704.17C735.556 704.17 735.2 703.103 735.2 700.968C735.2 698.832 735.556 697.765 736.268 697.765C749.79 697.765 759.577 696.875 765.626 695.096C772.032 693.317 776.302 689.936 778.437 684.954C780.928 679.616 782.174 671.609 782.174 660.934V413.79C782.174 403.114 780.928 395.285 778.437 390.303C776.302 385.321 772.032 381.941 765.626 380.161C759.577 378.026 749.79 376.959 736.268 376.959C735.556 376.959 735.2 375.891 735.2 373.756C735.2 371.621 735.556 370.553 736.268 370.553H950.85C954.053 370.553 955.654 372.155 955.654 375.357L956.722 441.013C956.722 442.081 955.654 442.792 953.519 443.148C951.74 443.148 950.85 442.615 950.85 441.547C949.783 422.686 944.089 408.096 933.769 397.776C923.449 387.101 909.749 381.763 892.668 381.763H860.106C847.651 381.763 838.399 382.83 832.35 384.965C826.3 386.745 822.03 389.947 819.539 394.574C817.403 399.2 816.336 406.495 816.336 416.459V658.798C816.336 668.407 817.403 675.702 819.539 680.684C822.03 685.31 826.122 688.513 831.816 690.292C837.509 692.071 846.406 692.961 858.505 692.961H901.208C918.289 692.961 932.524 686.911 943.911 674.812C955.299 662.713 962.95 645.988 966.864 624.636C966.864 623.924 967.576 623.568 968.999 623.568C970.067 623.568 970.956 623.924 971.668 624.636C972.736 624.992 973.269 625.348 973.269 625.704C970.067 648.123 968.465 671.609 968.465 696.164C968.465 699.01 967.754 701.146 966.33 702.569C965.263 703.637 963.127 704.17 959.925 704.17H736.268ZM930.033 579.798C930.033 564.14 926.118 552.931 918.289 546.169C910.816 539.408 898.183 536.027 880.39 536.027H800.322V524.818H881.992C899.073 524.818 911.172 521.971 918.289 516.277C925.762 510.583 929.499 500.975 929.499 487.453C929.499 486.741 930.566 486.385 932.702 486.385C934.837 486.385 935.904 486.741 935.904 487.453L935.37 530.689C935.37 541.009 935.548 548.838 935.904 554.176L936.438 579.798C936.438 580.51 935.37 580.865 933.235 580.865C931.1 580.865 930.033 580.51 930.033 579.798Z" fill="#F4EDE4"/>
<path d="M1204.99 704.17C1196.1 704.17 1179.01 689.046 1153.75 658.798C1128.84 628.195 1098.77 586.203 1063.54 532.825L1093.43 523.75C1124.39 568.232 1150.19 602.929 1170.83 627.839C1191.82 652.393 1210.33 670.186 1226.34 681.217C1242.36 692.249 1258.01 697.765 1273.32 697.765C1274.38 697.765 1274.92 698.832 1274.92 700.968C1274.92 703.103 1274.38 704.17 1273.32 704.17H1204.99ZM1070.48 368.952C1098.59 368.952 1120.3 375.357 1135.6 388.168C1150.9 400.979 1158.55 418.06 1158.55 439.412C1158.55 458.272 1153.04 475.531 1142 491.189C1130.97 506.491 1116.03 518.768 1097.17 528.02C1078.66 536.917 1058.73 541.365 1037.38 541.365C1035.25 541.365 1027.24 540.831 1013.36 539.764V660.934C1013.36 671.965 1014.43 679.972 1016.56 684.954C1018.7 689.936 1022.79 693.317 1028.84 695.096C1035.25 696.875 1045.21 697.765 1058.73 697.765C1059.8 697.765 1060.34 698.832 1060.34 700.968C1060.34 703.103 1059.8 704.17 1058.73 704.17C1047.7 704.17 1038.98 703.992 1032.58 703.637L995.747 703.103L959.449 703.637C953.044 703.992 943.969 704.17 932.226 704.17C931.514 704.17 931.159 703.103 931.159 700.968C931.159 698.832 931.514 697.765 932.226 697.765C945.749 697.765 955.713 696.875 962.118 695.096C968.524 692.961 972.972 689.402 975.463 684.42C977.954 679.438 979.199 671.609 979.199 660.934V413.79C979.199 403.114 977.954 395.285 975.463 390.303C973.328 385.321 969.057 381.941 962.652 380.161C956.602 378.026 946.816 376.959 933.294 376.959C932.226 376.959 931.692 375.891 931.692 373.756C931.692 371.621 932.226 370.553 933.294 370.553L959.449 371.087C974.395 371.799 986.495 372.155 995.747 372.155C1003.58 372.155 1010.87 371.977 1017.63 371.621C1024.39 371.265 1030.09 370.909 1034.71 370.553C1048.24 369.486 1060.16 368.952 1070.48 368.952ZM1122.25 454.892C1122.25 427.135 1116.03 407.207 1103.57 395.107C1091.47 383.008 1073.68 376.959 1050.19 376.959C1036.31 376.959 1026.71 379.45 1021.37 384.432C1016.03 389.414 1013.36 399.556 1013.36 414.858V526.953C1021.9 528.376 1032.4 529.088 1044.86 529.088C1072.61 529.088 1092.36 523.038 1104.11 510.939C1116.2 498.84 1122.25 480.158 1122.25 454.892Z" fill="#F4EDE4"/>
<path d="M1285.03 545.872H1426.48L1430.22 556.547H1279.69L1285.03 545.872ZM1549.25 696.934C1550.68 696.934 1551.39 698.001 1551.39 700.136C1551.39 702.271 1550.68 703.339 1549.25 703.339C1542.49 703.339 1531.99 702.983 1517.76 702.271C1503.52 701.56 1493.2 701.204 1486.8 701.204C1478.97 701.204 1469.01 701.56 1456.91 702.271C1445.52 702.983 1436.8 703.339 1430.75 703.339C1429.33 703.339 1428.62 702.271 1428.62 700.136C1428.62 698.001 1429.33 696.934 1430.75 696.934C1444.27 696.934 1453.88 695.688 1459.58 693.197C1465.63 690.706 1468.65 686.258 1468.65 679.852C1468.65 674.514 1466.52 667.041 1462.25 657.433L1343.74 407.087L1357.09 390.54L1253.53 635.548C1248.55 647.647 1246.06 657.611 1246.06 665.44C1246.06 686.436 1263.5 696.934 1298.37 696.934C1300.15 696.934 1301.04 698.001 1301.04 700.136C1301.04 702.271 1300.15 703.339 1298.37 703.339C1291.97 703.339 1285.42 704.882 1273.32 704.17C1259.79 703.459 1245.35 701.204 1235.39 701.204C1226.13 701.204 1217.5 701.204 1202.5 701.204C1191.82 701.916 1197.62 690 1190.5 690C1188.72 690 1209 697.635 1209 695.5C1209 693.365 1199.98 692.5 1201.76 692.5C1211.72 692.5 1195 695.154 1201.76 691.596C1208.87 687.681 1215.46 681.098 1221.51 671.846C1227.91 662.237 1234.85 648.537 1242.32 630.744L1354.95 364.918C1355.67 363.85 1356.91 363.316 1358.69 363.316C1360.47 363.316 1361.54 363.85 1361.89 364.918L1487.87 630.21C1499.97 656.544 1510.29 674.337 1518.83 683.589C1527.37 692.485 1537.51 696.934 1549.25 696.934Z" fill="#F4EDE4"/>
<path d="M23.8584 167.661L36.6693 168.729L31.3315 430.818C30.9756 449.679 34.1783 463.023 40.9396 470.852C47.7009 478.681 59.6222 482.596 76.7034 482.596C77.4151 482.596 77.771 483.663 77.771 485.798C77.771 487.934 77.4151 489.001 76.7034 489.001C66.7394 489.001 59.0884 488.823 53.7505 488.467L24.926 487.934L-2.83093 488.467C-7.81294 488.823 -14.9301 489.001 -24.1824 489.001C-24.8941 489.001 -25.25 487.934 -25.25 485.798C-25.25 483.663 -24.8941 482.596 -24.1824 482.596C-9.23638 482.596 1.43937 478.681 7.84482 470.852C14.6061 462.668 18.1647 449.323 18.5206 430.818L23.8584 167.661ZM388.435 482.596C389.503 482.596 390.037 483.663 390.037 485.798C390.037 487.934 389.82 488.845 388.753 488.845C377.721 488.845 368.685 488.823 362.28 488.467L325.448 487.934L291.286 488.467C285.592 488.823 277.585 489.001 267.266 489.001C266.554 489.001 266.198 487.934 266.198 485.798C266.198 483.663 266.554 482.596 267.266 482.596C279.365 482.596 288.261 481.706 293.955 479.927C300.004 477.792 303.919 474.233 305.698 469.251C307.833 464.269 308.545 456.44 307.833 445.764L297.691 187.945L315.306 163.391L176.522 485.265C175.81 486.688 174.386 487.4 172.251 487.4C170.472 487.4 168.871 486.688 167.447 485.265L33.4666 199.688C27.417 186.522 19.944 176.913 11.0475 170.864C2.50694 164.814 -7.99088 161.789 -20.4459 161.789C-21.1576 161.789 -21.5135 160.722 -21.5135 158.587C-21.5135 156.452 -21.1576 155.384 -20.4459 155.384L-0.69578 155.918C2.8628 156.274 7.84482 156.452 14.2503 156.452C20.6557 156.452 25.9936 156.274 30.2639 155.918C34.89 155.562 38.4486 155.384 40.9396 155.384C45.5658 155.384 49.3023 157.163 52.1492 160.722C55.3519 163.925 59.8001 171.398 65.4939 183.141L187.197 439.359L170.65 467.116L300.894 168.729C304.809 159.832 310.146 155.384 316.908 155.384C318.687 155.384 321.178 155.562 324.381 155.918C327.939 156.274 332.565 156.452 338.259 156.452L363.347 155.918C367.262 155.562 373.133 155.384 380.962 155.384C381.674 155.384 382.03 156.452 382.03 158.587C382.03 160.722 381.674 161.789 380.962 161.789C362.813 161.789 349.825 164.458 341.996 169.796C334.523 174.778 331.142 184.386 331.854 198.621L342.529 445.764C342.885 456.796 344.131 464.803 346.266 469.785C348.757 474.767 353.027 478.147 359.077 479.927C365.126 481.706 374.913 482.596 388.435 482.596Z" fill="#F4EDE4"/>
<path d="M418.84 331.534H560.294L564.03 342.21H413.502L418.84 331.534ZM683.065 482.596C684.488 482.596 685.2 483.663 685.2 485.798C685.2 487.934 684.488 489.001 683.065 489.001C676.304 489.001 665.806 488.645 651.572 487.934C637.337 487.222 627.017 486.866 620.612 486.866C612.783 486.866 602.819 487.222 590.72 487.934C579.332 488.645 570.614 489.001 564.564 489.001C563.141 489.001 562.429 487.934 562.429 485.798C562.429 483.663 563.141 482.596 564.564 482.596C578.087 482.596 587.695 481.35 593.389 478.859C599.438 476.368 602.463 471.92 602.463 465.514C602.463 460.177 600.328 452.704 596.058 443.095L477.557 192.749L490.902 176.202L387.347 421.21C382.365 433.309 379.874 443.273 379.874 451.102C379.874 472.098 397.311 482.596 432.185 482.596C433.964 482.596 434.854 483.663 434.854 485.798C434.854 487.934 433.964 489.001 432.185 489.001C425.779 489.001 416.527 488.645 404.428 487.934C394.5 488.5 395 488.993 384.5 488.993C375.248 488.993 354.629 483.788 342.529 484.5C331.854 485.212 335.617 484.5 328.5 484.5C326.721 484.5 307.812 487.934 307.812 485.798C307.812 483.663 308.702 482.596 310.481 482.596C320.445 482.596 328.808 480.816 335.569 477.258C342.687 473.343 349.27 466.76 355.32 457.508C361.725 447.899 368.664 434.199 376.137 416.406L488.766 150.58C489.478 149.512 490.724 148.979 492.503 148.979C494.282 148.979 495.35 149.512 495.706 150.58L621.679 415.872C633.779 442.206 644.099 459.999 652.639 469.251C661.18 478.147 671.322 482.596 683.065 482.596Z" fill="#F4EDE4"/>
</g>
<defs>
<clipPath id="clip0_3190_948">
<rect width="1503" height="993" fill="white" transform="translate(-45 -68)"/>
</clipPath>
</defs>
</svg>
